# xmcd
#
# Track frame offsets:
#	150
#	12022
#	27232
#	40847
#	55037
#	65317
#	76452
#	106027
#	116872
#	132240
#	144935
#	157525
#	168515
#	180817
#	196112
#
# Disc length: 2771 seconds
#
# Revision: 0
# Processed by: cddbd v1.5.2PL0 Copyright (c) Steve Scherf et al.
# Submitted via: dBpowerAMP V4.0
#
DISCID=aa0ad10f
DTITLE=CHAYITO VALDEZ - LOS GRANDES CORRIDOS
DYEAR=1900
DGENRE=
TTITLE0=CABALLO PRIETO AFAMADO
TTITLE1=EL MORO DE CUMPAS
TTITLE2=CABALLO PRIETO AZABACHE
TTITLE3=EL TIO JUAN
TTITLE4=LA FRONTERA DE TIJUANA
TTITLE5=CARABINA 30 30
TTITLE6=EL CHUNTE LUNA
TTITLE7=MI SOLDADITA
TTITLE8=CONTRABANDO Y TRAICION
TTITLE9=LA TUMBA DEL MOJADO
TTITLE10=BENJAMIN ARGUMEDO
TTITLE11=EL TORO GODINES
TTITLE12=LOS DOS AMIGOS
TTITLE13=LABERTO QUINTERO
TTITLE14=CONTRABANDO DEL AIRE
EXTD=CHAYITO VALDEZ INTERPRETA LOS GRANDES CORRIDOS
EXTT0=
EXTT1=
EXTT2=
EXTT3=
EXTT4=
EXTT5=
EXTT6=
EXTT7=
EXTT8=
EXTT9=
EXTT10=
EXTT11=
EXTT12=
EXTT13=
EXTT14=
PLAYORDER=
